# This file uses centimeters as units for non-parametric coordinates.

mtllib Tornado_outside_contrast_asset.mtl
g default
v 15.141116 0.000000 -4.919647
v 12.879822 0.000000 -9.357724
v 9.357725 0.000000 -12.879796
v 4.919648 0.000000 -15.141113
v 0.000001 0.000000 -15.920318
v -4.919647 0.000000 -15.141113
v -9.357723 0.000000 -12.879794
v -12.879793 0.000000 -9.357723
v -15.141110 0.000000 -4.919646
v -15.920316 0.000000 0.000001
v -15.141110 0.000000 4.919647
v -12.879793 0.000000 9.357723
v -9.357722 0.000000 12.879793
v -4.919646 0.000000 15.141111
v 0.000001 0.000000 15.920315
v 4.919646 0.000000 15.141110
v 9.357721 0.000000 12.879793
v 12.879792 0.000000 9.357722
v 15.141109 0.000000 4.919646
v 15.920315 0.000000 0.000001
v -8.767269 21.105878 26.982873
v -16.676339 21.105878 22.953015
v -22.953013 21.105878 16.676341
v -26.982869 21.105878 8.767279
v -28.371473 21.105878 0.000004
v -26.982869 21.105878 -8.767269
v -22.953015 21.105878 -16.676339
v -16.676341 21.105878 -22.953013
v -8.767271 21.105878 -26.982873
v 0.000003 21.105878 -28.371475
v 8.767280 21.105878 -26.982875
v 16.676343 21.105878 -22.953017
v 22.953019 21.105878 -16.676343
v 26.982877 21.105878 -8.767271
v 28.371472 21.105878 0.000004
v 26.982868 21.105878 8.767278
v 22.953012 21.105878 16.676339
v 16.676340 21.105878 22.953013
v 8.767270 21.105878 26.982868
v 0.000002 21.105878 28.371473
v 0.000000 17.913407 12.686306
v -3.920284 17.913407 12.065393
v -7.456823 17.913407 10.263437
v -10.263436 17.913407 7.456824
v -12.065394 17.913407 3.920285
v -12.686306 17.913407 0.000001
v -12.065394 17.913407 -3.920284
v -10.263438 17.913407 -7.456823
v -7.456824 17.913407 -10.263437
v -3.920285 17.913407 -12.065395
v 0.000001 17.913407 -12.686309
v 3.920286 17.913407 -12.065396
v 7.456826 17.913407 -10.263440
v 10.263440 17.913407 -7.456825
v 12.065399 17.913407 -3.920286
v 12.686305 17.913407 0.000001
v 12.065392 17.913407 3.920285
v 10.263434 17.913407 7.456823
v 7.456822 17.913407 10.263436
v 3.920284 17.913407 12.065393
v -0.000000 2.271296 4.779401
v -1.476916 2.271296 4.545479
v -2.809262 2.271296 3.866617
v -3.866617 2.271296 2.809262
v -4.545480 2.271296 1.476916
v -4.779402 2.271296 -0.000001
v -4.545480 2.271296 -1.476917
v -3.866619 2.271296 -2.809263
v -2.809262 2.271296 -3.866619
v -1.476917 2.271296 -4.545482
v -0.000000 2.271296 -4.779403
v 1.476917 2.271296 -4.545482
v 2.809264 2.271296 -3.866619
v 3.866620 2.271296 -2.809264
v 4.545483 2.271296 -1.476917
v 4.779401 2.271296 -0.000001
v 4.545479 2.271296 1.476916
v 3.866616 2.271296 2.809261
v 2.809261 2.271296 3.866617
v 1.476916 2.271296 4.545479
v -0.000000 6.962692 5.823249
v -1.799483 6.962692 5.538238
v -3.422820 6.962692 4.711107
v -4.711108 6.962692 3.422820
v -5.538238 6.962692 1.799483
v -5.823251 6.962692 -0.000000
v -5.538238 6.962692 -1.799483
v -4.711109 6.962692 -3.422821
v -3.422821 6.962692 -4.711108
v -1.799484 6.962692 -5.538241
v -0.000000 6.962692 -5.823252
v 1.799484 6.962692 -5.538241
v 3.422822 6.962692 -4.711110
v 4.711110 6.962692 -3.422822
v 5.538241 6.962692 -1.799484
v 5.823249 6.962692 -0.000000
v 5.538238 6.962692 1.799482
v 4.711106 6.962692 3.422820
v 3.422820 6.962692 4.711107
v 1.799482 6.962692 5.538238
v -2.695298 9.967783 -8.295272
v 0.000000 9.967783 -8.722168
v 2.695298 9.967783 -8.295272
v 5.126762 9.967783 -7.056382
v 7.056384 9.967783 -5.126762
v 8.295272 9.967783 -2.695299
v 8.722165 9.967783 0.000000
v 8.295269 9.967783 2.695297
v 7.056377 9.967783 5.126760
v 5.126760 9.967783 7.056379
v 2.695297 9.967783 8.295268
v 0.000000 9.967783 8.722165
v -2.695298 9.967783 8.295268
v -5.126761 9.967783 7.056379
v -7.056378 9.967783 5.126760
v -8.295271 9.967783 2.695297
v -8.722167 9.967783 0.000000
v -8.295271 9.967783 -2.695298
v -7.056380 9.967783 -5.126762
v -5.126762 9.967783 -7.056380
v 0.000000 13.781720 -8.509703
v 2.629642 13.781720 -8.093207
v 5.001878 13.781720 -6.884493
v 6.884494 13.781720 -5.001877
v 8.093207 13.781720 -2.629642
v 8.509699 13.781720 0.000000
v 8.093203 13.781720 2.629641
v 6.884488 13.781720 5.001875
v 5.001875 13.781720 6.884490
v 2.629641 13.781720 8.093205
v 0.000000 13.781720 8.509700
v -2.629640 13.781720 8.093205
v -5.001873 13.781720 6.884490
v -6.884490 13.781720 5.001876
v -8.093204 13.781720 2.629642
v -8.509700 13.781720 0.000000
v -8.093204 13.781720 -2.629641
v -6.884490 13.781720 -5.001875
v -5.001876 13.781720 -6.884490
v -2.629642 13.781720 -8.093207
v 2.097528 4.347143 6.455527
v -0.000000 4.347143 6.787743
v -2.097529 4.347143 6.455527
v -3.989735 4.347143 5.491404
v -5.491404 4.347143 3.989737
v -6.455528 4.347143 2.097528
v -6.787746 4.347143 0.000000
v -6.455528 4.347143 -2.097529
v -5.491405 4.347143 -3.989736
v -3.989736 4.347143 -5.491405
v -2.097529 4.347143 -6.455530
v -0.000000 4.347143 -6.787745
v 2.097528 4.347143 -6.455530
v 3.989738 4.347143 -5.491406
v 5.491407 4.347143 -3.989738
v 6.455532 4.347143 -2.097530
v 6.787743 4.347143 0.000000
v 6.455527 4.347143 2.097528
v 5.491402 4.347143 3.989735
v 3.989735 4.347143 5.491404
v 26.833326 21.093625 -8.754662
v 28.232068 21.093625 0.076686
vt 0.375000 0.312500
vt 0.387500 0.312500
vt 0.400000 0.312500
vt 0.412500 0.312500
vt 0.425000 0.312500
vt 0.437500 0.312500
vt 0.450000 0.312500
vt 0.462500 0.312500
vt 0.475000 0.312500
vt 0.487500 0.312500
vt 0.500000 0.312500
vt 0.512500 0.312500
vt 0.525000 0.312500
vt 0.537500 0.312500
vt 0.550000 0.312500
vt 0.562500 0.312500
vt 0.575000 0.312500
vt 0.587500 0.312500
vt 0.600000 0.312500
vt 0.612500 0.312500
vt 0.625000 0.312500
vt 0.537500 0.607211
vt 0.525000 0.607211
vt 0.512500 0.607211
vt 0.500000 0.607211
vt 0.487500 0.607211
vt 0.475000 0.607211
vt 0.462500 0.607211
vt 0.450000 0.607211
vt 0.437500 0.607211
vt 0.425000 0.607211
vt 0.412500 0.607211
vt 0.400000 0.607211
vt 0.387500 0.607211
vt 0.625000 0.607211
vt 0.375000 0.607211
vt 0.612500 0.607211
vt 0.600000 0.607211
vt 0.587500 0.607211
vt 0.575000 0.607211
vt 0.562500 0.607211
vt 0.550000 0.607211
vt 0.550000 0.523438
vt 0.537500 0.523438
vt 0.525000 0.523438
vt 0.512500 0.523438
vt 0.500000 0.523438
vt 0.487500 0.523438
vt 0.475000 0.523438
vt 0.462500 0.523438
vt 0.450000 0.523438
vt 0.437500 0.523438
vt 0.425000 0.523438
vt 0.412500 0.523438
vt 0.400000 0.523438
vt 0.387500 0.523438
vt 0.625000 0.523438
vt 0.375000 0.523438
vt 0.612500 0.523438
vt 0.600000 0.523438
vt 0.587500 0.523438
vt 0.575000 0.523438
vt 0.562500 0.523438
vt 0.550000 0.423760
vt 0.537500 0.423760
vt 0.525000 0.423760
vt 0.512500 0.423760
vt 0.500000 0.423760
vt 0.487500 0.423760
vt 0.475000 0.423760
vt 0.462500 0.423760
vt 0.450000 0.423760
vt 0.437500 0.423760
vt 0.425000 0.423760
vt 0.412500 0.423760
vt 0.400000 0.423760
vt 0.387500 0.423760
vt 0.625000 0.423760
vt 0.375000 0.423760
vt 0.612500 0.423760
vt 0.600000 0.423760
vt 0.587500 0.423760
vt 0.575000 0.423760
vt 0.562500 0.423760
vt 0.550000 0.468641
vt 0.537500 0.468641
vt 0.525000 0.468641
vt 0.512500 0.468641
vt 0.500000 0.468641
vt 0.487500 0.468641
vt 0.475000 0.468641
vt 0.462500 0.468641
vt 0.450000 0.468641
vt 0.437500 0.468641
vt 0.425000 0.468641
vt 0.412500 0.468641
vt 0.400000 0.468641
vt 0.387500 0.468641
vt 0.625000 0.468641
vt 0.375000 0.468641
vt 0.612500 0.468641
vt 0.600000 0.468641
vt 0.587500 0.468641
vt 0.575000 0.468641
vt 0.562500 0.468641
vt 0.437500 0.491112
vt 0.425000 0.491112
vt 0.412500 0.491112
vt 0.400000 0.491112
vt 0.387500 0.491112
vt 0.625000 0.491112
vt 0.375000 0.491112
vt 0.612500 0.491112
vt 0.600000 0.491112
vt 0.587500 0.491112
vt 0.575000 0.491112
vt 0.562500 0.491112
vt 0.550000 0.491112
vt 0.537500 0.491112
vt 0.525000 0.491112
vt 0.512500 0.491112
vt 0.500000 0.491112
vt 0.487500 0.491112
vt 0.475000 0.491112
vt 0.462500 0.491112
vt 0.450000 0.491112
vt 0.425000 0.496453
vt 0.412500 0.496453
vt 0.400000 0.496453
vt 0.387500 0.496453
vt 0.625000 0.496453
vt 0.375000 0.496453
vt 0.612500 0.496453
vt 0.600000 0.496453
vt 0.587500 0.496453
vt 0.575000 0.496453
vt 0.562500 0.496453
vt 0.550000 0.496453
vt 0.537500 0.496453
vt 0.525000 0.496453
vt 0.512500 0.496453
vt 0.500000 0.496453
vt 0.487500 0.496453
vt 0.475000 0.496453
vt 0.462500 0.496453
vt 0.450000 0.496453
vt 0.437500 0.496453
vt 0.562500 0.443619
vt 0.550000 0.443619
vt 0.537500 0.443619
vt 0.525000 0.443619
vt 0.512500 0.443619
vt 0.500000 0.443619
vt 0.487500 0.443619
vt 0.475000 0.443619
vt 0.462500 0.443619
vt 0.450000 0.443619
vt 0.437500 0.443619
vt 0.425000 0.443619
vt 0.412500 0.443619
vt 0.400000 0.443619
vt 0.387500 0.443619
vt 0.625000 0.443619
vt 0.375000 0.443619
vt 0.612500 0.443619
vt 0.600000 0.443619
vt 0.587500 0.443619
vt 0.575000 0.443619
vt 0.612500 0.607211
vt 0.625000 0.607211
vn 0.189984 0.979845 -0.061729
vn 0.161610 0.979845 -0.117416
vn 0.256947 0.948224 -0.186683
vn 0.302059 0.948224 -0.098144
vn 0.117416 0.979845 -0.161610
vn 0.186682 0.948224 -0.256947
vn 0.061730 0.979845 -0.189984
vn 0.098145 0.948224 -0.302059
vn 0.000000 0.979845 -0.199761
vn -0.000000 0.948224 -0.317603
vn -0.061730 0.979845 -0.189984
vn -0.098145 0.948224 -0.302059
vn -0.117417 0.979845 -0.161610
vn -0.186683 0.948224 -0.256947
vn -0.161610 0.979845 -0.117417
vn -0.256947 0.948224 -0.186683
vn -0.189984 0.979845 -0.061730
vn -0.302059 0.948224 -0.098145
vn -0.199761 0.979845 0.000000
vn -0.317603 0.948224 -0.000000
vn -0.189984 0.979845 0.061730
vn -0.302059 0.948224 0.098145
vn -0.161610 0.979845 0.117417
vn -0.256947 0.948224 0.186683
vn -0.117417 0.979845 0.161610
vn -0.186683 0.948224 0.256947
vn -0.061730 0.979845 0.189984
vn -0.098145 0.948224 0.302059
vn 0.000000 0.979845 0.199761
vn 0.000000 0.948224 0.317603
vn 0.061730 0.979845 0.189984
vn 0.098145 0.948224 0.302059
vn 0.117417 0.979845 0.161610
vn 0.186683 0.948224 0.256947
vn 0.161610 0.979845 0.117417
vn 0.256947 0.948224 0.186683
vn 0.189984 0.979845 0.061730
vn 0.302059 0.948224 0.098145
vn 0.199761 0.979845 0.000000
vn 0.317603 0.948224 0.000000
vn -0.085747 -0.960731 0.263902
vn 0.000000 -0.960731 0.277483
vn 0.000000 -0.979909 0.199445
vn -0.061632 -0.979909 0.189684
vn -0.163100 -0.960731 0.224488
vn -0.117231 -0.979909 0.161354
vn -0.224488 -0.960731 0.163100
vn -0.161354 -0.979909 0.117231
vn -0.263902 -0.960731 0.085747
vn -0.189684 -0.979909 0.061632
vn -0.277483 -0.960731 -0.000000
vn -0.199445 -0.979909 0.000000
vn -0.263902 -0.960731 -0.085747
vn -0.189684 -0.979909 -0.061632
vn -0.224488 -0.960731 -0.163100
vn -0.161354 -0.979909 -0.117231
vn -0.163100 -0.960731 -0.224488
vn -0.117231 -0.979909 -0.161355
vn -0.085747 -0.960731 -0.263902
vn -0.061632 -0.979909 -0.189684
vn 0.000000 -0.960731 -0.277483
vn 0.000000 -0.979909 -0.199445
vn 0.085747 -0.960731 -0.263902
vn 0.061632 -0.979909 -0.189684
vn 0.163100 -0.960731 -0.224488
vn 0.117231 -0.979909 -0.161354
vn 0.224488 -0.960731 -0.163100
vn 0.161354 -0.979909 -0.117231
vn 0.263902 -0.960731 -0.085747
vn 0.189684 -0.979909 -0.061632
vn 0.277483 -0.960731 0.000000
vn 0.199445 -0.979909 0.000000
vn 0.263902 -0.960731 0.085747
vn 0.189684 -0.979909 0.061632
vn 0.224488 -0.960731 0.163100
vn 0.161354 -0.979909 0.117231
vn 0.163100 -0.960731 0.224488
vn 0.117231 -0.979909 0.161355
vn 0.085747 -0.960731 0.263902
vn 0.061632 -0.979909 0.189684
vn 0.000000 -0.184077 0.982912
vn -0.303736 -0.184077 0.934805
vn -0.577741 -0.184077 0.795193
vn -0.795193 -0.184077 0.577741
vn -0.934805 -0.184077 0.303736
vn -0.982912 -0.184077 0.000000
vn -0.934805 -0.184077 -0.303736
vn -0.795193 -0.184077 -0.577741
vn -0.577741 -0.184077 -0.795192
vn -0.303736 -0.184077 -0.934805
vn -0.000000 -0.184077 -0.982912
vn 0.303736 -0.184077 -0.934805
vn 0.577741 -0.184077 -0.795193
vn 0.795193 -0.184077 -0.577741
vn 0.934805 -0.184077 -0.303735
vn 0.982912 -0.184077 0.000001
vn 0.934805 -0.184077 0.303736
vn 0.795193 -0.184077 0.577741
vn 0.577741 -0.184077 0.795192
vn 0.303736 -0.184077 0.934805
vn -0.287136 -0.369600 0.883713
vn -0.000000 -0.369600 0.929191
vn 0.000000 -0.325122 0.945672
vn -0.292229 -0.325122 0.899387
vn -0.546164 -0.369600 0.751732
vn -0.555852 -0.325122 0.765065
vn -0.751732 -0.369600 0.546165
vn -0.765065 -0.325122 0.555852
vn -0.883713 -0.369600 0.287136
vn -0.899387 -0.325122 0.292229
vn -0.929191 -0.369600 -0.000000
vn -0.945672 -0.325123 -0.000000
vn -0.883713 -0.369600 -0.287136
vn -0.899387 -0.325122 -0.292229
vn -0.751732 -0.369600 -0.546164
vn -0.765065 -0.325122 -0.555852
vn -0.546165 -0.369600 -0.751731
vn -0.555852 -0.325122 -0.765065
vn -0.287136 -0.369600 -0.883713
vn -0.292229 -0.325122 -0.899387
vn -0.000000 -0.369600 -0.929191
vn -0.000000 -0.325123 -0.945672
vn 0.287135 -0.369600 -0.883713
vn 0.292229 -0.325123 -0.899387
vn 0.546164 -0.369600 -0.751732
vn 0.555852 -0.325122 -0.765065
vn 0.751732 -0.369600 -0.546165
vn 0.765065 -0.325122 -0.555852
vn 0.883713 -0.369600 -0.287135
vn 0.899388 -0.325122 -0.292228
vn 0.929191 -0.369600 0.000001
vn 0.945672 -0.325122 0.000001
vn 0.883713 -0.369600 0.287136
vn 0.899387 -0.325122 0.292229
vn 0.751732 -0.369600 0.546164
vn 0.765065 -0.325122 0.555852
vn 0.546165 -0.369600 0.751731
vn 0.555852 -0.325122 0.765065
vn 0.287136 -0.369600 0.883713
vn 0.292229 -0.325123 0.899387
vn -0.269358 -0.490111 -0.828998
vn -0.000000 -0.490111 -0.871660
vn 0.269358 -0.490111 -0.828998
vn 0.512349 -0.490111 -0.705188
vn 0.705188 -0.490111 -0.512349
vn 0.828998 -0.490111 -0.269357
vn 0.871660 -0.490111 0.000001
vn 0.828998 -0.490111 0.269358
vn 0.705188 -0.490111 0.512349
vn 0.512349 -0.490111 0.705188
vn 0.269358 -0.490111 0.828998
vn 0.000000 -0.490111 0.871660
vn -0.269358 -0.490111 0.828998
vn -0.512349 -0.490111 0.705188
vn -0.705188 -0.490111 0.512349
vn -0.828998 -0.490111 0.269358
vn -0.871660 -0.490111 -0.000000
vn -0.828998 -0.490111 -0.269358
vn -0.705188 -0.490111 -0.512349
vn -0.512349 -0.490111 -0.705188
vn -0.080581 0.996666 0.012764
vn -0.080581 0.996666 0.012764
vn -0.080581 0.996666 0.012764
vn -0.080581 0.996666 0.012764
s 1
g pCylinder2
usemtl initialShadingGroup
f 1/1/1 2/2/2 74/77/3 75/79/4
f 2/2/2 3/3/5 73/76/6 74/77/3
f 3/3/5 4/4/7 72/75/8 73/76/6
f 4/4/7 5/5/9 71/74/10 72/75/8
f 5/5/9 6/6/11 70/73/12 71/74/10
f 6/6/11 7/7/13 69/72/14 70/73/12
f 7/7/13 8/8/15 68/71/16 69/72/14
f 8/8/15 9/9/17 67/70/18 68/71/16
f 9/9/17 10/10/19 66/69/20 67/70/18
f 10/10/19 11/11/21 65/68/22 66/69/20
f 11/11/21 12/12/23 64/67/24 65/68/22
f 12/12/23 13/13/25 63/66/26 64/67/24
f 13/13/25 14/14/27 62/65/28 63/66/26
f 14/14/27 15/15/29 61/64/30 62/65/28
f 15/15/29 16/16/31 80/84/32 61/64/30
f 16/16/31 17/17/33 79/83/34 80/84/32
f 17/17/33 18/18/35 78/82/36 79/83/34
f 18/18/35 19/19/37 77/81/38 78/82/36
f 19/19/37 20/20/39 76/80/40 77/81/38
f 20/20/39 1/21/1 75/78/4 76/80/40
f 42/44/41 41/43/42 40/42/43 21/22/44
f 43/45/45 42/44/41 21/22/44 22/23/46
f 44/46/47 43/45/45 22/23/46 23/24/48
f 45/47/49 44/46/47 23/24/48 24/25/50
f 46/48/51 45/47/49 24/25/50 25/26/52
f 47/49/53 46/48/51 25/26/52 26/27/54
f 48/50/55 47/49/53 26/27/54 27/28/56
f 49/51/57 48/50/55 27/28/56 28/29/58
f 50/52/59 49/51/57 28/29/58 29/30/60
f 51/53/61 50/52/59 29/30/60 30/31/62
f 52/54/63 51/53/61 30/31/62 31/32/64
f 53/55/65 52/54/63 31/32/64 32/33/66
f 54/56/67 53/55/65 32/33/66 33/34/68
f 55/58/69 54/56/67 33/34/68 34/36/70
f 56/59/71 55/57/69 34/35/70 35/37/72
f 57/60/73 56/59/71 35/37/72 36/38/74
f 58/61/75 57/60/73 36/38/74 37/39/76
f 59/62/77 58/61/75 37/39/76 38/40/78
f 60/63/79 59/62/77 38/40/78 39/41/80
f 41/43/42 60/63/79 39/41/80 40/42/43
f 62/65/28 61/64/30 142/149/81 143/150/82
f 63/66/26 62/65/28 143/150/82 144/151/83
f 64/67/24 63/66/26 144/151/83 145/152/84
f 65/68/22 64/67/24 145/152/84 146/153/85
f 66/69/20 65/68/22 146/153/85 147/154/86
f 67/70/18 66/69/20 147/154/86 148/155/87
f 68/71/16 67/70/18 148/155/87 149/156/88
f 69/72/14 68/71/16 149/156/88 150/157/89
f 70/73/12 69/72/14 150/157/89 151/158/90
f 71/74/10 70/73/12 151/158/90 152/159/91
f 72/75/8 71/74/10 152/159/91 153/160/92
f 73/76/6 72/75/8 153/160/92 154/161/93
f 74/77/3 73/76/6 154/161/93 155/162/94
f 75/79/4 74/77/3 155/162/94 156/164/95
f 76/80/40 75/78/4 156/163/95 157/165/96
f 77/81/38 76/80/40 157/165/96 158/166/97
f 78/82/36 77/81/38 158/166/97 159/167/98
f 79/83/34 78/82/36 159/167/98 160/168/99
f 80/84/32 79/83/34 160/168/99 141/148/100
f 61/64/30 80/84/32 141/148/100 142/149/81
f 82/86/101 81/85/102 112/118/103 113/119/104
f 83/87/105 82/86/101 113/119/104 114/120/106
f 84/88/107 83/87/105 114/120/106 115/121/108
f 85/89/109 84/88/107 115/121/108 116/122/110
f 86/90/111 85/89/109 116/122/110 117/123/112
f 87/91/113 86/90/111 117/123/112 118/124/114
f 88/92/115 87/91/113 118/124/114 119/125/116
f 89/93/117 88/92/115 119/125/116 120/126/118
f 90/94/119 89/93/117 120/126/118 101/106/120
f 91/95/121 90/94/119 101/106/120 102/107/122
f 92/96/123 91/95/121 102/107/122 103/108/124
f 93/97/125 92/96/123 103/108/124 104/109/126
f 94/98/127 93/97/125 104/109/126 105/110/128
f 95/100/129 94/98/127 105/110/128 106/112/130
f 96/101/131 95/99/129 106/111/130 107/113/132
f 97/102/133 96/101/131 107/113/132 108/114/134
f 98/103/135 97/102/133 108/114/134 109/115/136
f 99/104/137 98/103/135 109/115/136 110/116/138
f 100/105/139 99/104/137 110/116/138 111/117/140
f 81/85/102 100/105/139 111/117/140 112/118/103
f 102/107/122 101/106/120 140/147/141 121/127/142
f 103/108/124 102/107/122 121/127/142 122/128/143
f 104/109/126 103/108/124 122/128/143 123/129/144
f 105/110/128 104/109/126 123/129/144 124/130/145
f 106/112/130 105/110/128 124/130/145 125/132/146
f 107/113/132 106/111/130 125/131/146 126/133/147
f 108/114/134 107/113/132 126/133/147 127/134/148
f 109/115/136 108/114/134 127/134/148 128/135/149
f 110/116/138 109/115/136 128/135/149 129/136/150
f 111/117/140 110/116/138 129/136/150 130/137/151
f 112/118/103 111/117/140 130/137/151 131/138/152
f 113/119/104 112/118/103 131/138/152 132/139/153
f 114/120/106 113/119/104 132/139/153 133/140/154
f 115/121/108 114/120/106 133/140/154 134/141/155
f 116/122/110 115/121/108 134/141/155 135/142/156
f 117/123/112 116/122/110 135/142/156 136/143/157
f 118/124/114 117/123/112 136/143/157 137/144/158
f 119/125/116 118/124/114 137/144/158 138/145/159
f 120/126/118 119/125/116 138/145/159 139/146/160
f 101/106/120 120/126/118 139/146/160 140/147/141
f 122/128/143 121/127/142 51/53/61 52/54/63
f 123/129/144 122/128/143 52/54/63 53/55/65
f 124/130/145 123/129/144 53/55/65 54/56/67
f 125/132/146 124/130/145 54/56/67 55/58/69
f 126/133/147 125/131/146 55/57/69 56/59/71
f 127/134/148 126/133/147 56/59/71 57/60/73
f 128/135/149 127/134/148 57/60/73 58/61/75
f 129/136/150 128/135/149 58/61/75 59/62/77
f 130/137/151 129/136/150 59/62/77 60/63/79
f 131/138/152 130/137/151 60/63/79 41/43/42
f 132/139/153 131/138/152 41/43/42 42/44/41
f 133/140/154 132/139/153 42/44/41 43/45/45
f 134/141/155 133/140/154 43/45/45 44/46/47
f 135/142/156 134/141/155 44/46/47 45/47/49
f 136/143/157 135/142/156 45/47/49 46/48/51
f 137/144/158 136/143/157 46/48/51 47/49/53
f 138/145/159 137/144/158 47/49/53 48/50/55
f 139/146/160 138/145/159 48/50/55 49/51/57
f 140/147/141 139/146/160 49/51/57 50/52/59
f 121/127/142 140/147/141 50/52/59 51/53/61
f 142/149/81 141/148/100 100/105/139 81/85/102
f 143/150/82 142/149/81 81/85/102 82/86/101
f 144/151/83 143/150/82 82/86/101 83/87/105
f 145/152/84 144/151/83 83/87/105 84/88/107
f 146/153/85 145/152/84 84/88/107 85/89/109
f 147/154/86 146/153/85 85/89/109 86/90/111
f 148/155/87 147/154/86 86/90/111 87/91/113
f 149/156/88 148/155/87 87/91/113 88/92/115
f 150/157/89 149/156/88 88/92/115 89/93/117
f 151/158/90 150/157/89 89/93/117 90/94/119
f 152/159/91 151/158/90 90/94/119 91/95/121
f 153/160/92 152/159/91 91/95/121 92/96/123
f 154/161/93 153/160/92 92/96/123 93/97/125
f 155/162/94 154/161/93 93/97/125 94/98/127
f 156/164/95 155/162/94 94/98/127 95/100/129
f 157/165/96 156/163/95 95/99/129 96/101/131
f 158/166/97 157/165/96 96/101/131 97/102/133
f 159/167/98 158/166/97 97/102/133 98/103/135
f 160/168/99 159/167/98 98/103/135 99/104/137
f 141/148/100 160/168/99 99/104/137 100/105/139
s off
f 35/37/161 34/35/162 161/170/163 162/169/164
